<svg class="_logo_12q6x_19" aria-hidden="false" width="632" height="190" viewBox="0 0 632 190" fill="none" xmlns="http://www.w3.org/2000/svg"><path d="M80.3005 8.48038C79.5103 6.65038 78.42 3.40039 76.3695 3.40039C75.3592 3.40039 74.609 4.08039 73.6688 5.91039C71.7383 9.70039 70.6981 12.3704 66.1769 14.2604C64.1164 15.1204 60.6855 15.9704 60.6855 18.3104C60.6855 20.4504 63.5963 21.3104 64.9566 21.8304C68.0874 23.0304 70.338 25.0104 71.6483 28.1804C72.4485 30.1004 73.4487 33.8304 76.0894 33.8404C78.53 33.8404 79.1702 30.5304 79.8503 28.8004C81.1207 25.5504 83.0311 23.9104 85.8619 22.5004C87.6123 21.6304 91.6633 21.1504 91.8233 18.9104C92.0434 15.7804 86.8021 15.4704 85.0917 14.2804C82.611 12.5504 81.3807 11.3104 80.3005 8.47038V8.48038Z" fill="#00B5B0"></path><path d="M49.3028 38.2301C48.4326 35.7701 47.0023 34.0001 45.3218 34.2501C44.2616 34.4101 43.3613 35.6001 43.0513 37.9001C42.8412 39.4601 42.6712 40.9201 41.921 42.1701C40.2206 45.0101 33.959 46.2701 34.6692 49.4701C35.0793 51.3101 37.4999 51.1901 39.3003 51.3601C41.7809 51.6001 43.1313 51.9101 44.4116 53.4901C45.952 55.4101 47.1423 60.2301 49.973 59.7201C51.6734 59.4101 52.0935 56.1401 52.3636 54.8901C52.9637 51.9601 53.2738 50.2101 55.9945 48.6901C57.1848 48.0201 60.6957 46.6001 60.4756 44.9601C60.2656 43.3901 58.1951 42.8401 56.8847 42.6301C54.004 42.1701 50.6432 41.9901 49.3128 38.2301H49.3028Z" fill="#EB931B"></path><path d="M111.778 31.5204C111.328 29.9904 110.688 28.3104 109.528 28.2104C107.337 28.0204 106.787 31.6204 105.077 32.9804C102.776 34.8004 99.5452 33.9004 98.975 36.0604C98.5849 37.5204 100.375 38.2104 101.446 38.6804C103.046 39.3904 104.016 39.7104 104.796 41.4204C105.367 42.6704 105.557 46.0404 107.247 46.2204C109.288 46.4304 109.878 43.4604 111.198 42.2904C112.228 41.2504 112.949 40.5804 114.429 40.1704C115.519 39.8704 117.38 39.5504 117.63 38.4304C118.05 36.5604 115.259 35.7304 114.249 35.2404C112.518 34.3704 112.328 33.3804 111.778 31.5204Z" fill="#E2066F"></path><path d="M168.032 96.6403C167.332 91.7803 160.27 91.6903 151.328 91.5703C149.527 91.5503 147.637 91.5203 145.696 91.4603C131.483 91.0003 121.19 88.6503 113.328 84.0703C103.436 78.3103 99.8449 72.0103 94.5336 60.0003L93.6534 57.9903C89.5824 48.7403 86.9017 42.6403 82.1405 43.5603C81.1002 43.7703 80.28 44.3403 79.6799 45.2703C77.3793 48.8603 78.9397 57.1103 80.7702 64.7003C81.6404 68.3203 82.6506 71.4503 83.6209 74.4803C86.1515 82.3403 88.332 89.1303 87.2918 101.33C87.1217 103.28 86.8717 105.71 86.5816 108.47C85.3413 120.46 83.4508 138.58 85.1012 150.7C87.3418 167.14 91.2728 175.47 96.7942 175.47C96.9342 175.47 97.0642 175.47 97.2043 175.46C103.436 175 104.176 167.51 103.356 156.41L103.156 153.82C102.416 144.31 101.295 129.95 106.016 128.9C109.337 128.16 112.608 134.98 115.499 140.99C116.399 142.86 117.239 144.62 118.079 146.15L118.55 147.03C127.882 164.5 135.384 172.02 140.845 169.4C141.915 168.88 142.666 168.02 143.066 166.84C144.846 161.59 139.445 150.93 135.504 143.14C134.574 141.3 133.773 139.71 133.193 138.45L132.463 136.86C128.642 128.53 124.301 119.09 126.061 112.58C127.862 105.92 132.883 105.76 141.195 105.49C142.806 105.44 144.516 105.38 146.357 105.28C151.448 104.98 163.671 103.84 167.132 99.6103C167.872 98.7003 168.172 97.7003 168.022 96.6403H168.032Z" fill="#6650A1"></path><path d="M120.751 81.0603C121.601 81.2203 122.461 81.2902 123.301 81.2902C127.242 81.2902 130.983 79.6102 133.454 76.6202C135.194 74.5102 136.094 71.8502 136.064 68.9202C136.004 64.6002 133.884 60.4802 130.513 58.1502C126.252 55.2202 120.581 55.5202 116.059 58.9302C111.398 62.4402 109.478 67.9502 111.158 72.9502C112.579 77.1802 116.169 80.2103 120.761 81.0603H120.751Z" fill="#6650A1"></path><path d="M70.0076 67.3401C66.1666 66.5101 63.2959 71.8001 59.9151 80.6101C56.6443 89.1301 52.1531 98.5201 43.631 103.48C37.0293 107.33 28.8873 109.48 18.0146 110.25C16.2841 110.37 14.4137 110.41 12.6032 110.45C6.13161 110.59 0.0200745 110.72 6.95018e-05 114.58C-0.029938 119.95 9.66249 120.92 18.2146 121.77L20.5552 122C28.7973 122.8 30.7578 122.98 32.4482 126.55C34.8388 131.62 30.5877 138.87 26.4167 145.27L26.0066 145.9C21.6155 152.63 12.4732 166.62 17.9446 170.35C23.626 174.23 30.6978 163.9 35.3789 157.08L36.2792 155.77C37.1594 154.49 38.1296 152.91 39.1599 151.24C42.0906 146.46 45.7515 140.52 48.2622 140.51H48.2722C48.9323 140.51 49.4925 140.77 49.9726 141.3C51.9831 143.51 52.5432 150.16 51.553 160.05C51.2429 163.11 50.8328 170.58 53.6335 173.9C54.4337 174.85 55.434 175.38 56.5942 175.46C56.7043 175.46 56.8143 175.47 56.9143 175.47C62.1556 175.47 64.1361 166.01 65.4865 155.76C67.1369 143.24 65.8266 126.02 64.5562 117.5C63.0959 107.78 64.8163 103.28 67.1869 97.0401C68.4772 93.6401 69.9476 89.7901 71.1479 84.2901C72.3082 79.0001 73.8886 71.7601 71.9481 68.7301C71.478 67.9901 70.8178 67.5301 69.9976 67.3501L70.0076 67.3401Z" fill="#6650A1"></path><path d="M36.4492 100.1C37.1294 100.1 37.8195 100.04 38.5097 99.9104C42.2306 99.2204 45.1414 96.7604 46.3017 93.3204C47.672 89.2404 46.1016 84.7604 42.3107 81.9104C38.6498 79.1604 34.0586 78.9204 30.6177 81.3004C27.8871 83.1904 26.1666 86.5404 26.1166 90.0504C26.0866 92.4304 26.8168 94.5904 28.2271 96.3104C30.2276 98.7404 33.2484 100.1 36.4492 100.1Z" fill="#6650A1"></path><path d="M222.128 6.08984V39.1599L197.791 6.19984L197.711 6.08984H191.32V49.7099H197.781V16.5898L222.178 49.6098L222.248 49.7099H228.589V6.08984H222.128Z" fill="#00306B"></path><path d="M265.908 49.7099H259.707L259.587 44.5399C258.447 46.4799 256.926 47.9899 254.996 49.0699C253.075 50.1399 250.875 50.6799 248.404 50.6799C245.643 50.6799 243.173 49.9798 240.992 48.5798C238.802 47.1798 237.091 45.2698 235.851 42.8398C234.611 40.4098 234 37.6098 234 34.4498C234 31.2898 234.671 28.6599 236.011 26.1799C237.351 23.7099 239.152 21.7398 241.422 20.2798C243.693 18.8198 246.224 18.0898 249.024 18.0898C251.255 18.0898 253.285 18.6398 255.136 19.7298C256.976 20.8198 258.467 22.3399 259.607 24.2899L259.727 19.0598H265.928V49.6898L265.908 49.7099ZM250.225 44.9099C253.105 44.9099 255.436 43.9299 257.216 41.9599C258.997 39.9999 259.887 37.4698 259.887 34.3898C259.887 31.3098 258.997 28.7399 257.216 26.7899C255.436 24.8499 253.105 23.8699 250.225 23.8699C248.314 23.8699 246.634 24.3199 245.183 25.2099C243.723 26.0999 242.583 27.3398 241.752 28.9198C240.922 30.4998 240.502 32.3198 240.502 34.3898C240.502 36.4598 240.912 38.2798 241.752 39.8598C242.583 41.4398 243.733 42.6799 245.183 43.5699C246.644 44.4599 248.324 44.9099 250.225 44.9099Z" fill="#00306B"></path><path d="M277.332 24.4898H270.77V19.0798H277.332V10.5098H283.773V19.0798H294.046V24.4898H283.773V38.1598C283.773 40.5898 284.203 42.3398 285.054 43.4198C285.904 44.4898 287.284 45.0298 289.185 45.0298C290.195 45.0298 291.165 44.9098 292.075 44.6598C292.986 44.4198 293.946 44.0498 294.966 43.5698L295.696 48.9198C294.726 49.4898 293.536 49.9198 292.135 50.2298C290.735 50.5298 289.265 50.6898 287.724 50.6898C284.193 50.6898 281.583 49.7398 279.882 47.8298C278.182 45.9298 277.332 43.0098 277.332 39.0798V24.4898Z" fill="#00306B"></path><path d="M302.898 10.4801C302.108 9.69013 301.708 8.71014 301.708 7.53014C301.708 6.35014 302.098 5.37014 302.898 4.58014C303.698 3.79014 304.668 3.39014 305.849 3.39014C307.029 3.39014 307.999 3.78014 308.769 4.58014C309.539 5.37014 309.92 6.35014 309.92 7.53014C309.92 8.71014 309.539 9.69013 308.769 10.4801C307.999 11.2701 307.029 11.6701 305.849 11.6701C304.668 11.6701 303.688 11.2701 302.898 10.4801ZM302.678 19.0801H309.119V49.7101H302.678V19.0801Z" fill="#00306B"></path><path d="M345.449 42.6599C344.009 45.1299 342.068 47.0899 339.617 48.5199C337.167 49.9599 334.416 50.6799 331.385 50.6799C328.355 50.6799 325.534 49.9699 323.083 48.5499C320.633 47.1299 318.692 45.1998 317.282 42.7498C315.862 40.2998 315.151 37.5098 315.151 34.3898C315.151 31.2698 315.872 28.5498 317.312 26.0898C318.752 23.6398 320.693 21.6898 323.143 20.2498C325.594 18.8098 328.345 18.0898 331.385 18.0898C334.426 18.0898 337.287 18.7998 339.708 20.2198C342.138 21.6398 344.069 23.5699 345.479 26.0199C346.899 28.4699 347.61 31.2599 347.61 34.3799C347.61 37.4999 346.889 40.1699 345.449 42.6499V42.6599ZM331.375 44.9099C334.256 44.9099 336.587 43.9299 338.367 41.9599C340.148 39.9999 341.038 37.4698 341.038 34.3898C341.038 31.3098 340.148 28.7399 338.367 26.7899C336.587 24.8499 334.256 23.8699 331.375 23.8699C329.465 23.8699 327.785 24.3199 326.334 25.2099C324.874 26.0999 323.734 27.3398 322.903 28.9198C322.073 30.4998 321.663 32.3198 321.663 34.3898C321.663 36.4598 322.073 38.2798 322.903 39.8598C323.734 41.4398 324.884 42.6799 326.334 43.5699C327.785 44.4599 329.475 44.9099 331.375 44.9099Z" fill="#00306B"></path><path d="M353.681 19.0801H359.822L359.882 24.0601C360.732 22.2001 362.033 20.7401 363.773 19.6801C365.514 18.6201 367.524 18.1001 369.795 18.1001C373.396 18.1001 376.166 19.2201 378.097 21.4701C380.017 23.7201 380.988 26.9501 380.988 31.1601V49.7001H374.546V32.3801C374.546 26.6701 372.335 23.8101 367.914 23.8101C365.484 23.8101 363.583 24.6201 362.203 26.2401C360.822 27.8601 360.132 30.1101 360.132 32.9901V49.7001H353.691V19.0701L353.681 19.0801Z" fill="#00306B"></path><path d="M418.727 49.7099H412.525L412.405 44.5399C411.265 46.4799 409.745 47.9899 407.814 49.0699C405.884 50.1499 403.693 50.6799 401.222 50.6799C398.462 50.6799 395.991 49.9798 393.811 48.5798C391.62 47.1798 389.91 45.2698 388.669 42.8398C387.429 40.4098 386.819 37.6098 386.819 34.4498C386.819 31.2898 387.489 28.6599 388.829 26.1799C390.17 23.7099 391.97 21.7398 394.241 20.2798C396.511 18.8198 399.042 18.0898 401.843 18.0898C404.073 18.0898 406.114 18.6398 407.954 19.7298C409.795 20.8198 411.285 22.3399 412.425 24.2899L412.545 19.0598H418.747V49.6898L418.727 49.7099ZM403.043 44.9099C405.924 44.9099 408.254 43.9299 410.035 41.9599C411.815 39.9999 412.705 37.4698 412.705 34.3898C412.705 31.3098 411.815 28.7399 410.035 26.7899C408.254 24.8499 405.924 23.8699 403.043 23.8699C401.132 23.8699 399.452 24.3199 398.002 25.2099C396.551 26.0999 395.401 27.3398 394.571 28.9198C393.741 30.4998 393.33 32.3198 393.33 34.3898C393.33 36.4598 393.741 38.2798 394.571 39.8598C395.401 41.4398 396.551 42.6799 398.002 43.5699C399.452 44.4599 401.142 44.9099 403.043 44.9099Z" fill="#00306B"></path><path d="M426.809 0.47998H433.251V49.71H426.809V0.47998Z" fill="#00306B"></path><path d="M190.49 70.4199H207.684C215.546 70.4199 221.598 72.2799 225.809 76.0099C230.03 79.7399 232.13 85.0599 232.13 91.9799C232.13 96.5199 231.16 100.39 229.209 103.61C227.259 106.82 224.448 109.28 220.757 110.98C217.066 112.68 212.615 113.53 207.394 113.53H190.49V70.4199ZM207.004 104.51C215.896 104.51 220.337 100.33 220.337 91.9699C220.337 83.6099 215.896 79.4299 207.004 79.4299H201.783V104.5H207.004V104.51Z" fill="#00306B"></path><path d="M253.405 114.5C249.474 114.5 246.103 113.83 243.283 112.49C240.462 111.15 238.301 109.24 236.781 106.75C235.261 104.26 234.5 101.29 234.5 97.8502C234.5 94.4102 235.191 91.6702 236.571 89.1602C237.951 86.6502 239.872 84.6902 242.342 83.3002C244.813 81.9002 247.674 81.2002 250.915 81.2002C254.155 81.2002 256.816 81.8402 259.117 83.1102C261.427 84.3902 263.198 86.1902 264.438 88.5202C265.678 90.8502 266.288 93.6402 266.288 96.8802C266.288 97.4502 266.268 98.0202 266.228 98.5802C266.188 99.1502 266.128 99.7302 266.048 100.34H245.193C245.683 102.45 246.724 103.98 248.324 104.93C249.924 105.88 252.105 106.36 254.856 106.36C256.516 106.36 258.256 106.17 260.087 105.78C261.907 105.4 263.508 104.88 264.888 104.23L265.858 112.13C264.158 112.9 262.217 113.49 260.057 113.89C257.886 114.29 255.666 114.5 253.395 114.5H253.405ZM255.956 93.2302C255.676 91.8102 255.086 90.6902 254.195 89.8602C253.305 89.0302 252.145 88.6102 250.735 88.6102C247.574 88.6102 245.663 90.5302 245.023 94.3802H256.086C256.086 93.9802 256.046 93.5902 255.966 93.2302H255.956Z" fill="#00306B"></path><path d="M303.678 113.52H293.285L293.165 109.45C291.255 112.81 288.054 114.49 283.563 114.49C280.842 114.49 278.442 113.79 276.361 112.39C274.271 110.99 272.64 109.05 271.47 106.56C270.3 104.07 269.709 101.2 269.709 97.9597C269.709 94.7197 270.34 91.8997 271.59 89.3897C272.85 86.8797 274.551 84.8797 276.701 83.3997C278.852 81.9197 281.262 81.1797 283.933 81.1797C285.964 81.1797 287.784 81.6197 289.404 82.4897C291.025 83.3597 292.285 84.5897 293.175 86.1697L293.295 82.1597H303.688V113.52H303.678ZM291.465 102.77C292.635 101.47 293.225 99.8297 293.225 97.8497C293.225 95.8697 292.635 94.1697 291.465 92.8997C290.285 91.6197 288.794 90.9897 286.964 90.9897C285.133 90.9897 283.583 91.6297 282.403 92.8997C281.222 94.1697 280.642 95.8297 280.642 97.8497C280.642 99.8697 281.232 101.48 282.403 102.77C283.583 104.07 285.093 104.71 286.964 104.71C288.834 104.71 290.285 104.06 291.465 102.77Z" fill="#00306B"></path><path d="M314.621 90.98H309.58V82.17H314.621V79.13C314.621 74.31 315.811 70.58 318.212 67.95C320.602 65.32 324.003 64 328.424 64C329.765 64 331.165 64.13 332.615 64.4C334.076 64.66 335.246 65.02 336.146 65.46L335.056 74.33C334.526 74.09 333.856 73.88 333.045 73.72C332.235 73.56 331.505 73.48 330.855 73.48C327.364 73.48 325.624 75.61 325.624 79.86V82.17H333.035V90.98H325.624V113.53H314.621V90.98Z" fill="#00306B"></path><path d="M352.66 103.95C350.77 100.66 349.83 96.7499 349.83 92.2099C349.83 88.9199 350.41 85.9099 351.56 83.1899C352.71 80.4699 354.341 78.1099 356.441 76.1299C358.542 74.1499 361.042 72.6099 363.933 71.5399C366.824 70.4599 370.015 69.9199 373.495 69.9199C375.956 69.9199 378.427 70.2199 380.897 70.8299C383.368 71.4399 385.469 72.2499 387.169 73.2699L385.348 82.7399C383.568 81.8699 381.718 81.1899 379.787 80.6999C377.857 80.2099 376.006 79.9599 374.226 79.9599C370.365 79.9599 367.314 81.0699 365.063 83.2799C362.813 85.4899 361.683 88.4499 361.683 92.1599C361.683 95.8699 362.813 98.8099 365.063 100.98C367.314 103.15 370.385 104.24 374.286 104.24C376.106 104.24 378.107 103.93 380.297 103.3C382.488 102.68 384.498 101.87 386.309 100.89L387.499 110.76C385.759 111.82 383.588 112.67 380.977 113.31C378.367 113.95 375.776 114.27 373.205 114.27C368.404 114.27 364.253 113.37 360.752 111.58C357.251 109.78 354.561 107.24 352.67 103.95H352.66Z" fill="#00306B"></path><path d="M392.11 64.3H403.113V85.8701C403.963 84.3701 405.174 83.22 406.734 82.41C408.294 81.6 410.085 81.1901 412.115 81.1901C415.596 81.1901 418.277 82.3101 420.137 84.5601C421.998 86.8101 422.938 90.1001 422.938 94.4401V113.52H411.935V96.5001C411.935 92.8101 410.535 90.9701 407.744 90.9701C406.244 90.9701 405.104 91.49 404.313 92.5201C403.523 93.5501 403.123 95.0201 403.123 96.9301V113.52H392.12V64.29L392.11 64.3Z" fill="#00306B"></path><path d="M430.26 75.54C429.059 74.41 428.469 73.03 428.469 71.41C428.469 69.71 429.069 68.3 430.26 67.19C431.45 66.08 432.92 65.52 434.671 65.52C436.421 65.52 437.872 66.08 439.052 67.19C440.232 68.3 440.812 69.71 440.812 71.41C440.812 73.11 440.222 74.41 439.052 75.54C437.872 76.67 436.411 77.24 434.671 77.24C432.93 77.24 431.46 76.67 430.26 75.54ZM429.189 82.16H440.192V113.52H429.189V82.16Z" fill="#00306B"></path><path d="M446.704 64.2998H457.707V113.53H446.704V64.2998Z" fill="#00306B"></path><path d="M495.516 113.52H485.124L485.004 109.51C484.033 111.09 482.723 112.32 481.083 113.19C479.442 114.06 477.542 114.5 475.401 114.5C472.691 114.5 470.28 113.8 468.2 112.4C466.109 111 464.479 109.06 463.308 106.57C462.138 104.08 461.548 101.21 461.548 97.9701C461.548 94.7301 462.178 91.9101 463.428 89.4001C464.689 86.8901 466.389 84.89 468.54 83.41C470.69 81.93 473.101 81.1901 475.771 81.1901C479.542 81.1901 482.463 82.6101 484.524 85.4401V64.29H495.526V113.52H495.516ZM483.293 102.77C484.464 101.47 485.054 99.83 485.054 97.85C485.054 95.87 484.464 94.1701 483.293 92.9001C482.113 91.6201 480.623 90.9901 478.792 90.9901C476.962 90.9901 475.411 91.6301 474.231 92.9001C473.051 94.1701 472.471 95.83 472.471 97.85C472.471 99.87 473.061 101.48 474.231 102.77C475.411 104.07 476.922 104.71 478.792 104.71C480.663 104.71 482.113 104.06 483.293 102.77Z" fill="#00306B"></path><path d="M500.808 82.1598H511.51L511.57 87.8098C512.26 85.8198 513.281 84.2798 514.641 83.1898C516.001 82.0998 517.612 81.5498 519.472 81.5498C520.853 81.5498 522.043 81.7498 523.063 82.1598L522.153 92.5498C521.623 92.3498 520.973 92.1798 520.212 92.0298C519.442 91.8898 518.732 91.8198 518.082 91.8198C513.911 91.8198 511.82 94.5798 511.82 100.09V113.52H500.818V82.1598H500.808Z" fill="#00306B"></path><path d="M543.598 114.5C539.667 114.5 536.296 113.83 533.476 112.49C530.655 111.15 528.494 109.24 526.974 106.75C525.454 104.26 524.693 101.29 524.693 97.8502C524.693 94.4102 525.384 91.6702 526.764 89.1602C528.144 86.6502 530.065 84.6902 532.535 83.3002C535.006 81.9002 537.867 81.2002 541.107 81.2002C544.348 81.2002 547.009 81.8402 549.31 83.1102C551.62 84.3902 553.391 86.1902 554.631 88.5202C555.871 90.8502 556.481 93.6402 556.481 96.8802C556.481 97.4502 556.461 98.0202 556.421 98.5802C556.381 99.1502 556.321 99.7302 556.241 100.34H535.386C535.866 102.45 536.916 103.98 538.517 104.93C540.117 105.88 542.298 106.36 545.048 106.36C546.709 106.36 548.449 106.17 550.28 105.78C552.1 105.4 553.701 104.88 555.081 104.23L556.051 112.13C554.351 112.9 552.41 113.49 550.25 113.89C548.079 114.29 545.859 114.5 543.588 114.5H543.598ZM546.149 93.2302C545.869 91.8102 545.279 90.6902 544.388 89.8602C543.498 89.0302 542.338 88.6102 540.927 88.6102C537.767 88.6102 535.866 90.5302 535.216 94.3802H546.279C546.279 93.9802 546.239 93.5902 546.159 93.2302H546.149Z" fill="#00306B"></path><path d="M561.903 82.1597H572.666L572.786 86.1097C573.636 84.5297 574.856 83.3097 576.437 82.4597C578.017 81.6097 579.837 81.1797 581.908 81.1797C585.389 81.1797 588.069 82.2997 589.93 84.5497C591.79 86.7997 592.731 90.0897 592.731 94.4297V113.51H581.728V96.4897C581.728 92.7997 580.327 90.9597 577.537 90.9597C576.036 90.9597 574.886 91.4797 574.106 92.5097C573.316 93.5397 572.916 95.0097 572.916 96.9197V113.51H561.913V82.1497L561.903 82.1597Z" fill="#00306B"></path><path d="M606.334 103.62C607.914 104.63 609.634 105.4 611.505 105.93C613.365 106.46 615.216 106.72 617.036 106.72C619.797 106.72 621.167 106.01 621.167 104.59C621.167 103.86 620.867 103.3 620.257 102.92C619.647 102.54 618.367 102.08 616.426 101.55C612.535 100.5 609.764 99.1902 608.124 97.6302C606.484 96.0702 605.663 93.9302 605.663 91.2202C605.663 88.0602 606.854 85.6002 609.244 83.8402C611.635 82.0802 614.916 81.2002 619.097 81.2002C621.207 81.2002 623.288 81.4202 625.358 81.8702C627.429 82.3202 629.129 82.9202 630.47 83.6902L629.379 91.3502C626.139 89.7702 622.958 88.9802 619.837 88.9802C617.486 88.9802 616.306 89.6502 616.306 90.9902C616.306 91.6402 616.626 92.1802 617.276 92.6002C617.927 93.0202 619.197 93.5002 621.107 94.0302C624.998 95.0802 627.769 96.4302 629.429 98.0702C631.09 99.7102 631.92 101.87 631.92 104.54C631.92 107.7 630.67 110.15 628.179 111.89C625.688 113.63 622.208 114.5 617.756 114.5C615.326 114.5 612.955 114.22 610.645 113.65C608.334 113.08 606.494 112.33 605.113 111.4L606.334 103.62Z" fill="#00306B"></path><path d="M218.227 156.85C217.307 155.29 215.776 153.87 213.686 152.62C211.615 151.39 208.824 150.21 205.384 149.11C203.173 148.36 201.433 147.64 200.202 146.97C199.002 146.31 198.152 145.59 197.692 144.82C197.232 144.05 196.992 143.11 196.992 142.03C196.992 140.13 197.692 138.7 199.132 137.64C200.572 136.58 202.613 136.04 205.194 136.04C207.014 136.04 208.955 136.31 210.975 136.85C212.986 137.39 214.816 138.15 216.416 139.12L216.736 139.31L217.797 133.33L217.647 133.24C215.936 132.25 213.936 131.46 211.715 130.89C209.495 130.32 207.264 130.03 205.104 130.03C202.133 130.03 199.502 130.53 197.282 131.53C195.051 132.53 193.291 133.97 192.04 135.82C190.79 137.67 190.15 139.87 190.15 142.37C190.15 144.52 190.58 146.4 191.43 147.96C192.28 149.52 193.691 150.9 195.611 152.06C197.512 153.2 200.082 154.29 203.263 155.32C205.734 156.11 207.674 156.87 209.035 157.6C210.375 158.31 211.325 159.09 211.865 159.9C212.405 160.7 212.675 161.72 212.675 162.91C212.675 164.96 211.875 166.52 210.225 167.69C208.574 168.86 206.274 169.46 203.393 169.46C201.303 169.46 199.062 169.12 196.711 168.45C194.361 167.78 192.26 166.89 190.47 165.81L190.14 165.61L189.33 171.82L189.46 171.91C190.53 172.64 191.87 173.27 193.441 173.78C194.991 174.29 196.681 174.7 198.472 175.01C200.262 175.31 202.013 175.47 203.673 175.47C208.554 175.47 212.475 174.3 215.326 171.98C218.197 169.65 219.647 166.45 219.647 162.45C219.647 160.3 219.177 158.41 218.247 156.85H218.227Z" fill="#00306B"></path><path d="M253.225 167.45C251.785 169.92 249.844 171.88 247.394 173.31C244.943 174.75 242.193 175.47 239.162 175.47C236.131 175.47 233.31 174.76 230.86 173.34C228.409 171.92 226.469 169.99 225.058 167.54C223.638 165.09 222.928 162.3 222.928 159.18C222.928 156.06 223.648 153.34 225.088 150.88C226.529 148.43 228.469 146.48 230.92 145.04C233.37 143.6 236.121 142.88 239.152 142.88C242.183 142.88 245.053 143.59 247.484 145.01C249.914 146.43 251.845 148.36 253.255 150.81C254.676 153.26 255.386 156.05 255.386 159.17C255.386 162.29 254.666 164.96 253.225 167.44V167.45ZM239.152 169.7C242.033 169.7 244.363 168.72 246.144 166.75C247.924 164.79 248.814 162.26 248.814 159.18C248.814 156.1 247.924 153.53 246.144 151.58C244.363 149.64 242.033 148.66 239.152 148.66C237.241 148.66 235.561 149.11 234.111 150C232.65 150.89 231.51 152.13 230.68 153.71C229.849 155.29 229.429 157.11 229.429 159.18C229.429 161.25 229.839 163.07 230.68 164.65C231.51 166.23 232.66 167.47 234.111 168.36C235.571 169.25 237.251 169.7 239.152 169.7Z" fill="#00306B"></path><path d="M260.337 150.86C261.737 148.43 263.688 146.52 266.198 145.15C268.709 143.77 271.61 143.08 274.89 143.08C276.551 143.08 278.221 143.29 279.902 143.72C281.582 144.15 283.053 144.7 284.313 145.39L283.463 150.86C282.242 150.25 280.892 149.77 279.392 149.4C277.891 149.04 276.491 148.85 275.201 148.85C272.04 148.85 269.509 149.78 267.599 151.65C265.688 153.51 264.738 156.01 264.738 159.13C264.738 162.25 265.698 164.92 267.629 166.79C269.549 168.65 272.2 169.59 275.561 169.59C276.901 169.59 278.251 169.43 279.632 169.1C281.012 168.78 282.492 168.27 284.073 167.58L284.803 172.93C283.463 173.7 281.932 174.29 280.212 174.69C278.491 175.09 276.741 175.3 274.951 175.3C271.55 175.3 268.599 174.64 266.108 173.32C263.618 172 261.677 170.15 260.307 167.76C258.927 165.37 258.236 162.57 258.236 159.37C258.236 156.17 258.937 153.29 260.337 150.86Z" fill="#00306B"></path><path d="M291.165 135.27C290.375 134.48 289.975 133.5 289.975 132.32C289.975 131.14 290.365 130.16 291.165 129.37C291.965 128.58 292.935 128.18 294.116 128.18C295.296 128.18 296.266 128.57 297.036 129.37C297.807 130.16 298.187 131.14 298.187 132.32C298.187 133.5 297.807 134.48 297.036 135.27C296.266 136.06 295.296 136.46 294.116 136.46C292.935 136.46 291.955 136.06 291.165 135.27ZM290.945 143.87H297.386V174.5H290.945V143.87Z" fill="#00306B"></path><path d="M320.733 175.47C317.162 175.47 314.081 174.81 311.49 173.49C308.9 172.17 306.899 170.31 305.499 167.9C304.099 165.49 303.398 162.62 303.398 159.3C303.398 155.98 304.059 153.26 305.379 150.79C306.699 148.32 308.51 146.38 310.82 144.99C313.131 143.6 315.782 142.89 318.782 142.89C321.613 142.89 324.094 143.52 326.194 144.77C328.305 146.03 329.945 147.79 331.115 150.06C332.296 152.33 332.876 154.98 332.876 158.02C332.876 158.55 332.876 159.04 332.846 159.51C332.826 159.98 332.776 160.47 332.696 161H309.72C310.12 164 311.31 166.26 313.281 167.78C315.251 169.3 317.892 170.06 321.213 170.06C324.744 170.06 328.185 169.27 331.545 167.69L332.276 172.8C330.815 173.65 329.065 174.31 327.014 174.77C324.964 175.24 322.873 175.47 320.723 175.47H320.733ZM312.591 150.25C311.05 151.75 310.1 153.86 309.73 156.57H326.754C326.754 156.08 326.714 155.66 326.634 155.29C326.314 152.94 325.444 151.14 324.024 149.88C322.603 148.62 320.763 148 318.492 148C316.102 148 314.131 148.75 312.591 150.25Z" fill="#00306B"></path><path d="M341.648 149.28H335.086V143.87H341.648V135.3H348.089V143.87H358.362V149.28H348.089V162.95C348.089 165.38 348.519 167.13 349.37 168.21C350.22 169.28 351.6 169.82 353.501 169.82C354.511 169.82 355.481 169.7 356.391 169.45C357.302 169.21 358.262 168.84 359.282 168.36L360.012 173.71C359.042 174.28 357.852 174.71 356.451 175.02C355.051 175.32 353.581 175.48 352.04 175.48C348.509 175.48 345.899 174.53 344.198 172.62C342.498 170.72 341.648 167.8 341.648 163.87V149.28Z" fill="#00306B"></path><path d="M373.626 189.39H367.064L375.336 172.25L362.263 143.87H369.314L378.677 165.51L387.679 143.87H394.491L373.636 189.39H373.626Z" fill="#00306B"></path><path d="M600.142 64.2998C597.002 64.2998 594.361 67.0098 594.361 70.2198C594.361 73.4298 596.561 75.5998 599.472 75.5998C599.602 75.5998 599.752 75.5998 599.902 75.5698C599.062 77.6198 597.012 79.7398 595.321 80.6398L594.581 81.0298L599.252 84.8498L599.602 84.5998C604.133 81.3298 606.734 76.6198 606.734 71.6898C606.734 66.7598 603.413 64.2998 600.142 64.2998Z" fill="#00306B"></path></svg>