<svg width="408" height="434" viewBox="0 0 408 434" fill="none" xmlns="http://www.w3.org/2000/svg">
<path d="M239.542 151.796L229.984 190.47L201.271 162.855L239.542 151.796Z" fill="#E1CBFF"/>
<path d="M174.987 277.943L183.695 316.817L145.676 304.922L174.987 277.943Z" fill="#F9B5FF"/>
<path d="M108.541 35.9066L95.7522 55.2959L85.3549 34.5259L108.541 35.9066Z" fill="#F9B5FF"/>
<path d="M406.994 36.8667L386.461 47.7239L387.325 24.5129L406.994 36.8667Z" fill="#F9B5FF"/>
<path d="M335.9 123.772L315.366 134.629L316.23 111.418L335.9 123.772Z" fill="#F4D79C"/>
<path d="M88.0652 126.475L104.083 197.973L106.733 209.804L13.6618 180.686L22.5829 172.475L76.4943 122.855L85.4145 114.643L88.0652 126.475Z" stroke="#F4D79C" stroke-width="14"/>
<path d="M258.28 15.2122L296.893 10.1137L308.913 8.52729L284.751 66.9221L277.366 57.3065L253.644 26.4151L246.26 16.7987L258.28 15.2122Z" stroke="#F4D79C" stroke-width="14"/>
<path d="M73.0098 350.639L88.8755 359.484L99.4658 365.388L63.0571 387.145L62.8751 375.021L62.6024 356.858L62.4195 344.735L73.0098 350.639Z" stroke="#F4D79C" stroke-width="14"/>
<circle cx="165.099" cy="84.8735" r="25.5" fill="#DAABDE" fill-opacity="0.44"/>
<circle cx="123.099" cy="423.874" r="9.5" fill="#DAABDE" fill-opacity="0.44"/>
<circle cx="133.099" cy="144.874" r="9.5" fill="#DAABDE" fill-opacity="0.44"/>
<circle cx="71.0986" cy="252.874" r="18.5" fill="#E1CBFF"/>
<circle cx="333.099" cy="79.8735" r="18.5" fill="#E1CBFF"/>
</svg>
