<svg width="408" height="434" viewBox="0 0 408 434" fill="none" xmlns="http://www.w3.org/2000/svg">
<path d="M167.951 151.796L177.509 190.47L206.222 162.855L167.951 151.796Z" fill="#E1CBFF"/>
<path d="M232.506 277.943L223.798 316.817L261.818 304.922L232.506 277.943Z" fill="#F9B5FF"/>
<path d="M298.952 35.9066L311.741 55.2959L322.138 34.5259L298.952 35.9066Z" fill="#F9B5FF"/>
<path d="M0.498853 36.8667L21.0322 47.7239L20.1681 24.5129L0.498853 36.8667Z" fill="#F9B5FF"/>
<path d="M71.5936 123.772L92.1269 134.629L91.2629 111.418L71.5936 123.772Z" fill="#F4D79C"/>
<path d="M319.428 126.475L303.41 197.973L300.761 209.804L393.831 180.686L384.91 172.475L330.999 122.855L322.079 114.643L319.428 126.475Z" stroke="#F4D79C" stroke-width="14"/>
<path d="M149.213 15.2122L110.6 10.1137L98.5799 8.52729L122.742 66.9221L130.127 57.3065L153.849 26.4151L161.233 16.7987L149.213 15.2122Z" stroke="#F4D79C" stroke-width="14"/>
<path d="M334.483 350.639L318.618 359.484L308.027 365.388L344.436 387.145L344.618 375.021L344.891 356.858L345.074 344.735L334.483 350.639Z" stroke="#F4D79C" stroke-width="14"/>
<circle cx="25.5" cy="25.5" r="25.5" transform="matrix(-1 0 0 1 267.895 59.3735)" fill="#DAABDE" fill-opacity="0.44"/>
<circle cx="9.5" cy="9.5" r="9.5" transform="matrix(-1 0 0 1 293.895 414.374)" fill="#DAABDE" fill-opacity="0.44"/>
<circle cx="9.5" cy="9.5" r="9.5" transform="matrix(-1 0 0 1 283.895 135.374)" fill="#DAABDE" fill-opacity="0.44"/>
<circle cx="18.5" cy="18.5" r="18.5" transform="matrix(-1 0 0 1 354.895 234.374)" fill="#E1CBFF"/>
<circle cx="18.5" cy="18.5" r="18.5" transform="matrix(-1 0 0 1 92.8945 61.3735)" fill="#E1CBFF"/>
</svg>
